<?xml version="1.0" encoding="utf-8"?>
<!-- Generator: Adobe Illustrator 16.0.0, SVG Export Plug-In . SVG Version: 6.00 Build 0)  -->
<!DOCTYPE svg PUBLIC "-//W3C//DTD SVG 1.1//EN" "http://www.w3.org/Graphics/SVG/1.1/DTD/svg11.dtd">
<?xml-stylesheet type="text/css" href="../css/font.css" ?>
<svg version="1.1" xmlns="http://www.w3.org/2000/svg" xmlns:xlink="http://www.w3.org/1999/xlink" x="0px" y="0px"
   width="1279.9px" height="720px" viewBox="0 0 1279.9 720" enable-background="new 0 0 1279.9 720" xml:space="preserve">
<g id="Contact">

    <text transform="matrix(1.0001 0 0 1 18.7197 63.2344)" fill="#E97B42" font-family="'DIN-Bold'" font-size="55.3682" letter-spacing="-1">Contact</text>
</g>
<g id="Vous_souhaitez_contacter_l_x2019_agence_ze_truc__x3F__1_">

    <text id="Vous_souhaitez_contacter_l_x2019_agence_ze_truc__x3F_" transform="matrix(0.9994 0 0 1 343.9199 62.8267)" font-family="'DIN-Light'" font-size="35.8248">Vous souhaitez contacter l’agence ze truc ?</text>
</g>
<g id="TROYES">
  <text transform="matrix(1.0001 0 0 1 48.2402 164.9985)" font-family="'DIN-Medium'" font-size="49.4852" letter-spacing="-1">TROYES</text>
</g>
<g id="TELephone:_1_">
  <text transform="matrix(1 0 0 1 48.1978 258.7183)" font-family="'DIN-Medium'" font-size="33">TELephone:</text>
</g>
<g id="Adresse:_1_">
  <text transform="matrix(1 0 0 1 48.1978 214.5586)" font-family="'DIN-Medium'" font-size="33">Adresse:</text>
</g>
<g id="_x36_9_rue_de_Gournay">
  <text transform="matrix(1 0 0 1 212.3574 214.5586)" font-family="'DIN-Light'" font-size="28">69 rue de Gournay</text>
</g>
<g id="_x30_3_25_40_57_97">
  <text transform="matrix(1 0 0 1 253.6377 258.2393)" font-family="'DIN-Light'" font-size="28">03 25 40 57 97</text>
</g>
<g id="reims">
  <text transform="matrix(1.0001 0 0 1 505.4404 164.9985)" font-family="'DIN-Medium'" font-size="49.4852" letter-spacing="-1">reims</text>
</g>
<g id="TELephone:">
  <text transform="matrix(1 0 0 1 505.3975 258.7183)" font-family="'DIN-Medium'" font-size="33">TELephone:</text>
</g>
<g id="Adresse:">
  <text transform="matrix(1 0 0 1 505.3975 214.5586)" font-family="'DIN-Medium'" font-size="33">Adresse:</text>
</g>
<g id="_x32_F_Avenue_de_Général_de_Gaulle">
  <text transform="matrix(1 0 0 1 669.5576 214.5586)" font-family="'DIN-Light'" font-size="28">2F Avenue de Général de Gaulle</text>
</g>
<g id="_x30_9_72_44_34_78">
  <text transform="matrix(1 0 0 1 710.8379 258.2393)" font-family="'DIN-Light'" font-size="28">09 72 44 34 78</text>
</g>
<g id="plan_xA0_Image_1_">

    <image overflow="visible" width="1887" height="1296" id="plan_xA0_Image" xlink:href="../img/447BC494531586C9.png"  transform="matrix(0.24 0 0 0.24 78 332.6401)">
  </image>
</g>
</svg>
