<?xml version="1.0" encoding="utf-8"?>
<!-- Generator: Adobe Illustrator 16.0.0, SVG Export Plug-In . SVG Version: 6.00 Build 0)  -->
<!DOCTYPE svg PUBLIC "-//W3C//DTD SVG 1.1//EN" "http://www.w3.org/Graphics/SVG/1.1/DTD/svg11.dtd">
<svg version="1.1" xmlns="http://www.w3.org/2000/svg" xmlns:xlink="http://www.w3.org/1999/xlink" x="0px" y="0px"
	 width="1279.9px" height="720px" viewBox="0 0 1279.9 720" enable-background="new 0 0 1279.9 720" xml:space="preserve">
<g id="Les_membres">
	<text transform="matrix(1 0 0 1 27.3174 66.2393)" fill="#BFC23A" font-family="'DIN-Bold'" font-size="50" letter-spacing="-1">Les membres</text>
</g>
<g id="L_x2019_agence_zetruc_est_composé_de_5_membres_et_de_3_stagiaires_1_">

		<text id="L_x2019_agence_zetruc_est_composé_de_5_membres_et_de_3_stagiaires" transform="matrix(0.9979 0 0 1 374.3999 67.3428)" font-family="'DIN-LightAlternate'" font-size="28.8913">L’agence zetruc est composé de 5 membres et de 3 stagiaires</text>
</g>
<g id="Julien_crozon">
	<text transform="matrix(0.9987 0 0 1 41.9458 362.4121)" font-family="'DIN-Medium'" font-size="29.5136">Julien Crozon</text>
</g>
<g id="Directeur_7_">
	<text transform="matrix(1.0075 0 0 1 83.502 393.9414)" font-family="'DIN-Light'" font-size="28.9268">Directeur</text>
</g>
<g id="aurélia_6_">
	<text transform="matrix(1.0002 0 0 1 344.2915 331.751)" font-family="'DIN-Medium'" font-size="22.5248">Aurélia</text>
</g>
<g id="Directeur_6_">
	<text transform="matrix(1.0091 0 0 1 344.5034 355.8145)" font-family="'DIN-Light'" font-size="22.077">Chef de projet</text>
</g>
<g id="aurélia_5_">
	<text transform="matrix(1.0002 0 0 1 592.6909 331.751)" font-family="'DIN-Medium'" font-size="22.5248">Florian</text>
</g>
<g id="Directeur_5_">
	<text transform="matrix(1.0091 0 0 1 592.9033 355.8145)" font-family="'DIN-Light'" font-size="22.077">Graphiste</text>
</g>
<g id="aurélia_4_">
	<text transform="matrix(1.0002 0 0 1 843.252 331.751)" font-family="'DIN-Medium'" font-size="22.5248">Stéphanie</text>
</g>
<g id="Directeur_4_">
	<text transform="matrix(1.0091 0 0 1 843.4629 355.8145)" font-family="'DIN-Light'" font-size="22.077">Commerciale</text>
</g>
<g id="aurélia_3_">
	<text transform="matrix(1.0002 0 0 1 1086.8506 331.751)" font-family="'DIN-Medium'" font-size="22.5248">Angéline</text>
</g>
<g id="Directeur_3_">
	<text transform="matrix(1.0091 0 0 1 1087.0625 355.8145)" font-family="'DIN-Light'" font-size="22.077">Secrétaire</text>
</g>
<g id="aurélia_2_">
	<text transform="matrix(1.0002 0 0 1 601.731 434.4717)" font-family="'DIN-Medium'" font-size="22.5248">Nicolas</text>
</g>
<g id="Directeur_2_">
	<text transform="matrix(1.0091 0 0 1 601.9434 458.5342)" font-family="'DIN-Light'" font-size="22.077">Stagiaire</text>
</g>
<g id="aurélia_1_">
	<text transform="matrix(1.0002 0 0 1 544.1313 552.5518)" font-family="'DIN-Medium'" font-size="22.5248">Jordan</text>
</g>
<g id="Directeur_1_">
	<text transform="matrix(1.0091 0 0 1 544.3433 576.6152)" font-family="'DIN-Light'" font-size="22.077">Stagiaire</text>
</g>
<g id="aurélia">
	<text transform="matrix(1.0002 0 0 1 489.4111 665.8311)" font-family="'DIN-Medium'" font-size="22.5248">Adèle</text>
</g>
<g id="Directeur">
	<text transform="matrix(1.0091 0 0 1 489.623 689.8945)" font-family="'DIN-Light'" font-size="22.077">Stagiaire</text>
</g>
<g>
	<image xlink:href="../img/Julien.png" transform="matrix(0.24 0 0 0.24 50 120)" width="814" height="814"></image>
</g>
<g>
	<image xlink:href="../img/aurelia.png" transform="matrix(0.22 0 0 0.22 300 100)" width="814" height="814"></image>
</g>
<g>
	<image xlink:href="../img/florian.png" transform="matrix(0.22 0 0 0.22 550 100)" width="814" height="814"></image>
</g>
<g>
	<image xlink:href="../img/steph.png" transform="matrix(0.22 0 0 0.22 800 100)" width="814" height="814"></image>
</g>
<g>
	<image xlink:href="../img/angeline.png" transform="matrix(0.22 0 0 0.22 1050 100)" width="814" height="814"></image>
</g>
<g>
	<image xlink:href="../img/nico.png" transform="matrix(0.15 0 0 0.15 450 370)" width="814" height="814"></image>
</g>
<g>
	<image xlink:href="../img/jordan.png" transform="matrix(0.15 0 0 0.15 400 490)" width="814" height="814"></image>
</g>
<g>
	<image xlink:href="../img/adele.png" transform="matrix(0.15 0 0 0.15 350 600)" width="814" height="814"></image>
</g>
<g>
	<image xlink:href="../img/B62A01B9FFF53B11.png" transform="matrix(1 0 0 1 750 400)" width="548" height="308"></image>
</g>
</svg>
