<?xml version="1.0" encoding="utf-8"?>
<!-- Generator: Adobe Illustrator 16.0.0, SVG Export Plug-In . SVG Version: 6.00 Build 0)  -->
<!DOCTYPE svg PUBLIC "-//W3C//DTD SVG 1.1//EN" "http://www.w3.org/Graphics/SVG/1.1/DTD/svg11.dtd">
<?xml-stylesheet type="text/css" href="../css/font.css" ?>
<svg version="1.1" xmlns="http://www.w3.org/2000/svg" xmlns:xlink="http://www.w3.org/1999/xlink" x="0px" y="0px"
	 width="1279.9px" height="720px" viewBox="0 0 1279.9 720" enable-background="new 0 0 1279.9 720" xml:space="preserve">
<g id="PRINT">
	<text transform="matrix(0.9968 0 0 1 165.2783 330.8052)" font-family="'DIN-Medium'" font-size="32.0499">PRINT</text>
</g>
<g id="webdesign">
	<text transform="matrix(0.9968 0 0 1 407.7539 330.8052)" font-family="'DIN-Medium'" font-size="32.0499">webdesign</text>
</g>
<g id="evenementiel">
	<text transform="matrix(0.9968 0 0 1 673.6289 330.8052)" font-family="'DIN-Medium'" font-size="32.0499">evenementiel</text>
</g>
<g id="APPLICATION">
	<text transform="matrix(0.9968 0 0 1 972.5371 330.8052)" font-family="'DIN-Medium'" font-size="32.0499">APPLICATION</text>
</g>
<g id="webdesign_xA0_Image_1_">

		<image overflow="visible" width="1046" height="623" id="webdesign_xA0_Image" xlink:href="../img/B91B43F3EB32FAB0.png"  transform="matrix(0.24 0 0 0.24 368.8799 141.3599)">
	</image>
</g>
<g id="evenementiel_xA0_Image_1_">

		<image overflow="visible" width="1055" height="623" id="evenementiel_xA0_Image" xlink:href="../img/B91B43F3EB32FAB1.png"  transform="matrix(0.24 0 0 0.24 656.4004 140.8799)">
	</image>
</g>
<g id="print_xA0_Image_1_">

		<image overflow="visible" width="1046" height="622" id="print_xA0_Image" xlink:href="../img/B91B43F3EB32FAB7.png"  transform="matrix(0.24 0 0 0.24 80.3999 141.1201)">
	</image>
</g>
<g id="application_xA0_Image_1_">

		<image overflow="visible" width="1045" height="622" id="application_xA0_Image" xlink:href="../img/B91B43F3EB32FAB2.png"  transform="matrix(0.24 0 0 0.24 946.3203 140.8799)">
	</image>
</g>
<g id="Ze_truc:_Une_agence_polyvalente_1_">

		<text id="Ze_truc:_Une_agence_polyvalente" transform="matrix(1 0 0 1 536.1177 71.0386)" font-family="'DIN-Light'" font-size="33">Ze truc: Une agence polyvalente</text>
</g>
<defs>
	<filter id="Adobe_OpacityMaskFilter" filterUnits="userSpaceOnUse" x="0" y="0" width="1279.9" height="720">
		<feColorMatrix  type="matrix" values="1 0 0 0 0  0 1 0 0 0  0 0 1 0 0  0 0 0 1 0"/>
	</filter>
</defs>
<mask maskUnits="userSpaceOnUse" x="0" y="0" width="1279.9" height="720" id="IMG_x5F_2481_copie_xA0_Image_2_">
	<g id="IMG_x5F_2481_copieMasque_d_x27_opacité_3_" filter="url(#Adobe_OpacityMaskFilter)">

			<image overflow="visible" width="5790" height="3000" id="IMG_x5F_2481_copieMasque_d_x27_opacité_2_" xlink:href="../img/B91B43F3EB32FAB0.jpg"  transform="matrix(0.24 0 0 0.24 -109.6797 0)">
		</image>
	</g>
</mask>
<g id="IMG_x5F_2481_copie_xA0_Image_1_" mask="url(#IMG_x5F_2481_copie_xA0_Image_2_)">
	<g transform="matrix(1 0 0 1 0 0)">

			<image overflow="visible" width="5333" height="3000" id="IMG_x5F_2481_copie_xA0_Image" xlink:href="../img/B91B43F3EB32FABE.png"  transform="matrix(0.24 0 0 0.24 0 0)">
		</image>
	</g>
</g>
<g id="_x33_60_xB0_">

		<text transform="matrix(0.9354 -0.3535 0.3535 0.9354 375.7485 523.333)" fill="#4C8D41" font-family="'DIN-Black'" font-size="89.0609" letter-spacing="-2">360°</text>
</g>
<g id="_x33_60_xB0_.________Ce_serait_le_mot_pour_définir_Ze_Truc.__L_x2019_agence_t_1_">

		<text id="_x33_60_xB0_.________Ce_serait_le_mot_pour_définir_Ze_Truc.__L_x2019_agence_t" transform="matrix(0.9993 0 0 1 738 447.0439)"><tspan x="0" y="0" font-family="'DIN-Regular'" font-size="34.958">360°.</tspan><tspan x="76" y="0" font-family="'DIN-Regular'" font-size="24.9529">       </tspan><tspan x="0" y="29.9" font-family="'DIN-Regular'" font-size="24.9529">Ce serait </tspan><tspan x="119" y="29.9" font-family="'DIN-Regular'" font-size="24.9529">le</tspan><tspan x="147" y="29.9" font-family="'DIN-Regular'" font-size="24.9529"> mot pour définir Ze Truc. </tspan><tspan x="0" y="59.9" font-family="'DIN-Regular'" font-size="24.9529">L’agence travaille également avec </tspan><tspan x="0" y="89.8" font-family="'DIN-Regular'" font-size="24.9529">des personnes extérieures, comme</tspan><tspan x="0" y="119.8" font-family="'DIN-Regular'" font-size="24.9529">Olivier Gobert, afin de proposer</tspan><tspan x="0" y="149.7" font-family="'DIN-Regular'" font-size="24.9529">de nouveaux services. </tspan></text>
</g>
<g id="Les_produits">

		<text transform="matrix(0.9993 0 0 1 27.3604 71.5957)" fill="#4C8D41" font-family="'DIN-Bold'" font-size="56.7242" letter-spacing="-1">Les produits</text>
</g>
</svg>
